# xmcd CD database file
#
# Track frame offsets:
#	150
#	24150
#	34013
#	52801
#	71026
#	83889
#	102939
#	133839
#
# Disc length: 2126 seconds
#
# Revision: 0
# Processed by: cddbd v1.5.1PL0 Copyright (c) Steve Scherf et al.
# Submitted via: CDex 1.51
#
DISCID=60084c08
DTITLE=D.wat. - in the end of the age
DYEAR=1999
DGENRE=Techno
TTITLE0=in the end of the age
TTITLE1=anti music man <ladb MIX>
TTITLE2=higedance
TTITLE3=brainknocking
TTITLE4=fakeface realface <faith MIX>
TTITLE5=flying intelligence <rebirth>
TTITLE6=MIDI still calls them dad
TTITLE7=D a go go (bonustrack for japan only)
EXTD=YEAR: 1999
EXTT0=
EXTT1=
EXTT2=
EXTT3=
EXTT4=
EXTT5=
EXTT6=
EXTT7=
PLAYORDER=
